<svg width="40" height="40" viewBox="0 0 40 40" fill="none" xmlns="http://www.w3.org/2000/svg">
<g clip-path="url(#clip0_220_8261)">
<path d="M38.0079 1.5625L22.4 13.1547L25.2863 6.31544L38.0079 1.5625Z" fill="#E2761B" stroke="#E2761B" stroke-width="0.3125" stroke-linecap="round" stroke-linejoin="round"/>
<path d="M1.97656 1.5625L17.4589 13.2645L14.7138 6.31544L1.97656 1.5625Z" fill="#E4761B" stroke="#E4761B" stroke-width="0.3125" stroke-linecap="round" stroke-linejoin="round"/>
<path d="M32.3922 28.4331L28.2354 34.8017L37.1295 37.2488L39.6863 28.5743L32.3922 28.4331Z" fill="#E4761B" stroke="#E4761B" stroke-width="0.3125" stroke-linecap="round" stroke-linejoin="round"/>
<path d="M0.329468 28.5743L2.87064 37.2488L11.7648 34.8017L7.6079 28.4331L0.329468 28.5743Z" fill="#E4761B" stroke="#E4761B" stroke-width="0.3125" stroke-linecap="round" stroke-linejoin="round"/>
<path d="M11.2629 17.6723L8.78442 21.4213L17.6158 21.8134L17.3021 12.3232L11.2629 17.6723Z" fill="#E4761B" stroke="#E4761B" stroke-width="0.3125" stroke-linecap="round" stroke-linejoin="round"/>
<path d="M28.7216 17.6722L22.6039 12.2134L22.4 21.8134L31.2157 21.4212L28.7216 17.6722Z" fill="#E4761B" stroke="#E4761B" stroke-width="0.3125" stroke-linecap="round" stroke-linejoin="round"/>
<path d="M11.7648 34.8019L17.0667 32.2137L12.4863 28.6372L11.7648 34.8019Z" fill="#E4761B" stroke="#E4761B" stroke-width="0.3125" stroke-linecap="round" stroke-linejoin="round"/>
<path d="M22.9177 32.2137L28.2354 34.8019L27.4981 28.6372L22.9177 32.2137Z" fill="#E4761B" stroke="#E4761B" stroke-width="0.3125" stroke-linecap="round" stroke-linejoin="round"/>
<path d="M28.2353 34.8016L22.9176 32.2134L23.3411 35.68L23.2941 37.1389L28.2353 34.8016Z" fill="#D7C1B3" stroke="#D7C1B3" stroke-width="0.3125" stroke-linecap="round" stroke-linejoin="round"/>
<path d="M11.7646 34.8016L16.7058 37.1389L16.6745 35.68L17.0666 32.2134L11.7646 34.8016Z" fill="#D7C1B3" stroke="#D7C1B3" stroke-width="0.3125" stroke-linecap="round" stroke-linejoin="round"/>
<path d="M16.7844 26.3466L12.3608 25.0446L15.4824 23.6172L16.7844 26.3466Z" fill="#233447" stroke="#233447" stroke-width="0.3125" stroke-linecap="round" stroke-linejoin="round"/>
<path d="M23.2 26.3466L24.5019 23.6172L27.6392 25.0446L23.2 26.3466Z" fill="#233447" stroke="#233447" stroke-width="0.3125" stroke-linecap="round" stroke-linejoin="round"/>
<path d="M11.7647 34.8017L12.5176 28.4331L7.60779 28.5743L11.7647 34.8017Z" fill="#CD6116" stroke="#CD6116" stroke-width="0.3125" stroke-linecap="round" stroke-linejoin="round"/>
<path d="M27.4824 28.4331L28.2354 34.8017L32.3922 28.5743L27.4824 28.4331Z" fill="#CD6116" stroke="#CD6116" stroke-width="0.3125" stroke-linecap="round" stroke-linejoin="round"/>
<path d="M31.2156 21.4214L22.3999 21.8135L23.2156 26.3469L24.5175 23.6175L27.6548 25.0449L31.2156 21.4214Z" fill="#CD6116" stroke="#CD6116" stroke-width="0.3125" stroke-linecap="round" stroke-linejoin="round"/>
<path d="M12.3608 25.0449L15.498 23.6175L16.7843 26.3469L17.6157 21.8135L8.7843 21.4214L12.3608 25.0449Z" fill="#CD6116" stroke="#CD6116" stroke-width="0.3125" stroke-linecap="round" stroke-linejoin="round"/>
<path d="M8.7843 21.4214L12.4863 28.6371L12.3608 25.0449L8.7843 21.4214Z" fill="#E4751F" stroke="#E4751F" stroke-width="0.3125" stroke-linecap="round" stroke-linejoin="round"/>
<path d="M27.6549 25.0449L27.498 28.6371L31.2157 21.4214L27.6549 25.0449Z" fill="#E4751F" stroke="#E4751F" stroke-width="0.3125" stroke-linecap="round" stroke-linejoin="round"/>
<path d="M17.6157 21.8135L16.7843 26.3468L17.8196 31.6958L18.0549 24.6527L17.6157 21.8135Z" fill="#E4751F" stroke="#E4751F" stroke-width="0.3125" stroke-linecap="round" stroke-linejoin="round"/>
<path d="M22.4 21.8135L21.9764 24.637L22.1647 31.6958L23.2157 26.3468L22.4 21.8135Z" fill="#E4751F" stroke="#E4751F" stroke-width="0.3125" stroke-linecap="round" stroke-linejoin="round"/>
<path d="M23.2157 26.3469L22.1647 31.6959L22.9176 32.2135L27.498 28.6371L27.6549 25.0449L23.2157 26.3469Z" fill="#F6851B" stroke="#F6851B" stroke-width="0.3125" stroke-linecap="round" stroke-linejoin="round"/>
<path d="M12.3608 25.0449L12.4863 28.6371L17.0667 32.2135L17.8197 31.6959L16.7844 26.3469L12.3608 25.0449Z" fill="#F6851B" stroke="#F6851B" stroke-width="0.3125" stroke-linecap="round" stroke-linejoin="round"/>
<path d="M23.2941 37.139L23.3411 35.6802L22.949 35.3351H17.0352L16.6745 35.6802L16.7058 37.139L11.7646 34.8018L13.4901 36.2135L16.9882 38.6449H22.996L26.5097 36.2135L28.2352 34.8018L23.2941 37.139Z" fill="#C0AD9E" stroke="#C0AD9E" stroke-width="0.3125" stroke-linecap="round" stroke-linejoin="round"/>
<path d="M22.9177 32.2134L22.1648 31.6958H17.8197L17.0667 32.2134L16.6746 35.6801L17.0353 35.335H22.9491L23.3412 35.6801L22.9177 32.2134Z" fill="#161616" stroke="#161616" stroke-width="0.3125" stroke-linecap="round" stroke-linejoin="round"/>
<path d="M38.6666 13.9076L40 7.5076L38.0078 1.5625L22.9176 12.7625L28.7215 17.6723L36.9254 20.0723L38.7451 17.9547L37.9607 17.39L39.2156 16.2449L38.2431 15.4919L39.498 14.5351L38.6666 13.9076Z" fill="#763D16" stroke="#763D16" stroke-width="0.3125" stroke-linecap="round" stroke-linejoin="round"/>
<path d="M0 7.5076L1.33333 13.9076L0.486275 14.5351L1.74118 15.4919L0.784314 16.2449L2.03922 17.39L1.2549 17.9547L3.05882 20.0723L11.2627 17.6723L17.0667 12.7625L1.97647 1.5625L0 7.5076Z" fill="#763D16" stroke="#763D16" stroke-width="0.3125" stroke-linecap="round" stroke-linejoin="round"/>
<path d="M36.9255 20.0724L28.7216 17.6724L31.2157 21.4214L27.498 28.6371L32.3922 28.5743H39.6863L36.9255 20.0724Z" fill="#F6851B" stroke="#F6851B" stroke-width="0.3125" stroke-linecap="round" stroke-linejoin="round"/>
<path d="M11.2628 17.6724L3.05888 20.0724L0.329468 28.5743H7.6079L12.4863 28.6371L8.78437 21.4214L11.2628 17.6724Z" fill="#F6851B" stroke="#F6851B" stroke-width="0.3125" stroke-linecap="round" stroke-linejoin="round"/>
<path d="M22.4 21.8135L22.9177 12.7625L25.302 6.31543H14.7137L17.0667 12.7625L17.6157 21.8135L17.8039 24.6684L17.8196 31.6958H22.1647L22.1961 24.6684L22.4 21.8135Z" fill="#F6851B" stroke="#F6851B" stroke-width="0.3125" stroke-linecap="round" stroke-linejoin="round"/>
</g>
<defs>
<clipPath id="clip0_220_8261">
<rect width="40" height="40" fill="white"/>
</clipPath>
</defs>
</svg>
