<?xml version="1.0" encoding="utf-8"?>
<!-- Generator: Adobe Illustrator 24.3.0, SVG Export Plug-In . SVG Version: 6.00 Build 0)  -->
<svg version="1.0" id="katman_1" xmlns="http://www.w3.org/2000/svg" xmlns:xlink="http://www.w3.org/1999/xlink" x="0px" y="0px"
	 viewBox="0 0 273.41 182.27" style="enable-background:new 0 0 273.41 182.27;" xml:space="preserve">
<style type="text/css">
	.st0{fill:#F0F0F0;}
	.st1{fill:#D80027;}
	.st2{fill:#0052B4;}
</style>
<path class="st0" d="M273.39,0H0v182.26h273.39V0z"/>
<path class="st1" d="M153.78,0h-34.17v74.04H0v34.17h119.61v74.04h34.17v-74.04h119.61V74.04H153.78V0z"/>
<path class="st2" d="M210.29,122.83l63.12,35.07v-35.07H210.29z"/>
<path class="st2" d="M166.42,122.83l106.98,59.43v-16.81l-76.73-42.63H166.42z"/>
<path class="st2" d="M244.91,182.26l-78.49-43.61v43.61H244.91z"/>
<path class="st0" d="M166.41,122.83l106.98,59.43v-16.81l-76.73-42.63H166.41z"/>
<path class="st1" d="M166.41,122.83l106.98,59.43v-16.81l-76.73-42.63H166.41z"/>
<path class="st2" d="M48.24,122.83L0,149.63v-26.8H48.24z"/>
<path class="st2" d="M106.99,130.38v51.88H13.62L106.99,130.38z"/>
<path class="st1" d="M76.73,122.83L0,165.46v16.81l106.98-59.43H76.73z"/>
<path class="st2" d="M63.12,59.44L0,24.37v35.07H63.12z"/>
<path class="st2" d="M106.98,59.44L0,0.01v16.81l76.73,42.63H106.98z"/>
<path class="st2" d="M28.49,0.01l78.48,43.61V0.01H28.49z"/>
<path class="st0" d="M106.98,59.43L0,0v16.81l76.73,42.63H106.98z"/>
<path class="st1" d="M106.98,59.43L0,0v16.81l76.73,42.63H106.98z"/>
<path class="st2" d="M225.16,59.45l48.24-26.8v26.8H225.16z"/>
<path class="st2" d="M166.42,51.88V0.01h93.37L166.42,51.88z"/>
<path class="st1" d="M196.66,59.43l76.73-42.63V0L166.41,59.43H196.66z"/>
</svg>
